<mxfile host="app.diagrams.net" agent="Mozilla/5.0 (Windows NT 10.0; Win64; x64) AppleWebKit/537.36 (KHTML, like Gecko) Chrome/136.0.0.0 Safari/537.36" version="27.0.6">
  <diagram name="Adapter Pattern - VeÃ­culos" id="rTLrPXLJGWmYbPlkpyeS">
    <mxGraphModel dx="872" dy="1646" grid="1" gridSize="10" guides="1" tooltips="1" connect="1" arrows="1" fold="1" page="1" pageScale="1" pageWidth="827" pageHeight="1169" math="0" shadow="0">
      <root>
        <mxCell id="0" />
        <mxCell id="1" parent="0" />
        <mxCell id="gSB1tn2oDwSC6Zw9wQZv-9" value="&lt;span style=&quot;font-weight: 400; text-wrap-mode: nowrap;&quot;&gt;VehicleStorageAdapter&lt;/span&gt;" style="swimlane;fontStyle=1;align=center;verticalAlign=top;childLayout=stackLayout;horizontal=1;startSize=26;horizontalStack=0;resizeParent=1;resizeParentMax=0;resizeLast=0;collapsible=1;marginBottom=0;whiteSpace=wrap;html=1;" parent="1" vertex="1">
          <mxGeometry x="300" y="-140" width="200" height="94" as="geometry" />
        </mxCell>
        <mxCell id="gSB1tn2oDwSC6Zw9wQZv-10" value="&lt;span style=&quot;text-align: center; text-wrap-mode: nowrap;&quot;&gt;- oldStorage: OldVehicleStorage&lt;/span&gt;" style="text;strokeColor=none;fillColor=none;align=left;verticalAlign=top;spacingLeft=4;spacingRight=4;overflow=hidden;rotatable=0;points=[[0,0.5],[1,0.5]];portConstraint=eastwest;whiteSpace=wrap;html=1;" parent="gSB1tn2oDwSC6Zw9wQZv-9" vertex="1">
          <mxGeometry y="26" width="200" height="30" as="geometry" />
        </mxCell>
        <mxCell id="gSB1tn2oDwSC6Zw9wQZv-11" value="" style="line;strokeWidth=1;fillColor=none;align=left;verticalAlign=middle;spacingTop=-1;spacingLeft=3;spacingRight=3;rotatable=0;labelPosition=right;points=[];portConstraint=eastwest;strokeColor=inherit;" parent="gSB1tn2oDwSC6Zw9wQZv-9" vertex="1">
          <mxGeometry y="56" width="200" height="8" as="geometry" />
        </mxCell>
        <mxCell id="gSB1tn2oDwSC6Zw9wQZv-12" value="&lt;span style=&quot;text-align: center; text-wrap-mode: nowrap;&quot;&gt;+ saveVehicleData(vehicle: Vehicle)&lt;/span&gt;" style="text;strokeColor=none;fillColor=none;align=left;verticalAlign=top;spacingLeft=4;spacingRight=4;overflow=hidden;rotatable=0;points=[[0,0.5],[1,0.5]];portConstraint=eastwest;whiteSpace=wrap;html=1;" parent="gSB1tn2oDwSC6Zw9wQZv-9" vertex="1">
          <mxGeometry y="64" width="200" height="30" as="geometry" />
        </mxCell>
        <mxCell id="qnMQauVrfdD1MR00eJ-W-9" value="vehicle" style="swimlane;fontStyle=0;childLayout=stackLayout;horizontal=1;startSize=26;fillColor=none;horizontalStack=0;resizeParent=1;resizeParentMax=0;resizeLast=0;collapsible=1;marginBottom=0;whiteSpace=wrap;html=1;" vertex="1" parent="1">
          <mxGeometry x="100" y="-320" width="140" height="104" as="geometry" />
        </mxCell>
        <mxCell id="qnMQauVrfdD1MR00eJ-W-10" value="- id: String" style="text;strokeColor=none;fillColor=none;align=left;verticalAlign=top;spacingLeft=4;spacingRight=4;overflow=hidden;rotatable=0;points=[[0,0.5],[1,0.5]];portConstraint=eastwest;whiteSpace=wrap;html=1;" vertex="1" parent="qnMQauVrfdD1MR00eJ-W-9">
          <mxGeometry y="26" width="140" height="26" as="geometry" />
        </mxCell>
        <mxCell id="qnMQauVrfdD1MR00eJ-W-11" value="- model: String" style="text;strokeColor=none;fillColor=none;align=left;verticalAlign=top;spacingLeft=4;spacingRight=4;overflow=hidden;rotatable=0;points=[[0,0.5],[1,0.5]];portConstraint=eastwest;whiteSpace=wrap;html=1;" vertex="1" parent="qnMQauVrfdD1MR00eJ-W-9">
          <mxGeometry y="52" width="140" height="26" as="geometry" />
        </mxCell>
        <mxCell id="qnMQauVrfdD1MR00eJ-W-12" value="- year: int" style="text;strokeColor=none;fillColor=none;align=left;verticalAlign=top;spacingLeft=4;spacingRight=4;overflow=hidden;rotatable=0;points=[[0,0.5],[1,0.5]];portConstraint=eastwest;whiteSpace=wrap;html=1;" vertex="1" parent="qnMQauVrfdD1MR00eJ-W-9">
          <mxGeometry y="78" width="140" height="26" as="geometry" />
        </mxCell>
        <mxCell id="qnMQauVrfdD1MR00eJ-W-13" value="OldVehicleStorage" style="swimlane;fontStyle=1;align=center;verticalAlign=top;childLayout=stackLayout;horizontal=1;startSize=26;horizontalStack=0;resizeParent=1;resizeParentMax=0;resizeLast=0;collapsible=1;marginBottom=0;whiteSpace=wrap;html=1;" vertex="1" parent="1">
          <mxGeometry x="590" y="-140" width="210" height="60" as="geometry" />
        </mxCell>
        <mxCell id="qnMQauVrfdD1MR00eJ-W-15" value="" style="line;strokeWidth=1;fillColor=none;align=left;verticalAlign=middle;spacingTop=-1;spacingLeft=3;spacingRight=3;rotatable=0;labelPosition=right;points=[];portConstraint=eastwest;strokeColor=inherit;" vertex="1" parent="qnMQauVrfdD1MR00eJ-W-13">
          <mxGeometry y="26" width="210" height="8" as="geometry" />
        </mxCell>
        <mxCell id="qnMQauVrfdD1MR00eJ-W-16" value="+ storeVehicleData(string)" style="text;strokeColor=none;fillColor=none;align=left;verticalAlign=top;spacingLeft=4;spacingRight=4;overflow=hidden;rotatable=0;points=[[0,0.5],[1,0.5]];portConstraint=eastwest;whiteSpace=wrap;html=1;" vertex="1" parent="qnMQauVrfdD1MR00eJ-W-13">
          <mxGeometry y="34" width="210" height="26" as="geometry" />
        </mxCell>
        <mxCell id="qnMQauVrfdD1MR00eJ-W-17" value="&lt;p style=&quot;margin:0px;margin-top:4px;text-align:center;&quot;&gt;&lt;i&gt;&amp;lt;&amp;lt;Interface&amp;gt;&amp;gt;&lt;/i&gt;&lt;br&gt;&lt;b&gt;IVehicleStorage&lt;/b&gt;&lt;/p&gt;&lt;hr size=&quot;1&quot; style=&quot;border-style:solid;&quot;&gt;&lt;p style=&quot;margin:0px;margin-left:4px;&quot;&gt;&lt;br&gt;&lt;/p&gt;&lt;p style=&quot;margin:0px;margin-left:4px;&quot;&gt;+ saveVehicleData(Vehicle)&lt;/p&gt;" style="verticalAlign=top;align=left;overflow=fill;html=1;whiteSpace=wrap;" vertex="1" parent="1">
          <mxGeometry x="330" y="-312" width="180" height="88" as="geometry" />
        </mxCell>
        <mxCell id="qnMQauVrfdD1MR00eJ-W-18" style="edgeStyle=orthogonalEdgeStyle;rounded=0;orthogonalLoop=1;jettySize=auto;html=1;entryX=0;entryY=0.5;entryDx=0;entryDy=0;" edge="1" parent="1" source="qnMQauVrfdD1MR00eJ-W-10" target="qnMQauVrfdD1MR00eJ-W-17">
          <mxGeometry relative="1" as="geometry" />
        </mxCell>
        <mxCell id="qnMQauVrfdD1MR00eJ-W-19" style="edgeStyle=orthogonalEdgeStyle;rounded=0;orthogonalLoop=1;jettySize=auto;html=1;entryX=0.394;entryY=0.955;entryDx=0;entryDy=0;entryPerimeter=0;dashed=1;" edge="1" parent="1" source="gSB1tn2oDwSC6Zw9wQZv-9" target="qnMQauVrfdD1MR00eJ-W-17">
          <mxGeometry relative="1" as="geometry" />
        </mxCell>
        <mxCell id="qnMQauVrfdD1MR00eJ-W-20" style="edgeStyle=orthogonalEdgeStyle;rounded=0;orthogonalLoop=1;jettySize=auto;html=1;entryX=0.019;entryY=0.231;entryDx=0;entryDy=0;entryPerimeter=0;" edge="1" parent="1" source="gSB1tn2oDwSC6Zw9wQZv-10" target="qnMQauVrfdD1MR00eJ-W-16">
          <mxGeometry relative="1" as="geometry" />
        </mxCell>
        <mxCell id="qnMQauVrfdD1MR00eJ-W-21" value="Implements" style="text;align=center;fontStyle=1;verticalAlign=middle;spacingLeft=3;spacingRight=3;strokeColor=none;rotatable=0;points=[[0,0.5],[1,0.5]];portConstraint=eastwest;html=1;" vertex="1" parent="1">
          <mxGeometry x="414" y="-166" width="80" height="26" as="geometry" />
        </mxCell>
      </root>
    </mxGraphModel>
  </diagram>
</mxfile>
